<svg xmlns="http://www.w3.org/2000/svg" viewBox="0 0 200 200">
  <!-- <g transform="rotate(90 100 100)"> -->
  <g>
    <!-- 外圈 -->
    <circle cx="100" cy="100" r="98" fill="none" />

    <!-- 灰色部分 -->
    <path d="
    M 100,0
    A 100,100 0 0 0 100,200
    A 50,50 0 0 1 100,100
    A 50,50 0 0 0 100,0
    Z" fill="#e5e7eb" />

    <!-- 白色部分 -->
    <path d="
    M 100,200
    A 100,100 0 0 0 100,0
    A 50,50 0 0 1 100,100
    A 50,50 0 0 0 100,200
    Z" fill="#000000" />
  </g>

  <defs>

    <path id='zai' transform="translate(85, 115) scale(1)"
      d="M25.122.293L26.147 0l1.099 6.372 1.538.073a12.763 12.763 0 011.847 1.047q1.973 1.378 1.973 2.96a2.584 2.584 0 01-.011.241q-1.22 1.363-5.179 2.586a37.163 37.163 0 01-.168.051 35.37 35.37 0 00-.888 2.821q-.418 1.53-.798 3.338a78.645 78.645 0 00-.291 1.458l5.859-1.172 5.566-1.171.66.585L26.66 29.883l.147 3.222a55.136 55.136 0 011.011 4.381q1.273 6.681 1.53 15.656a151.752 151.752 0 01.022.837l-1.099 6.373a18.687 18.687 0 012.278 4.358 25.331 25.331 0 01.945 3.186l-1.025.512-2.124-3.149-.586-.073-4.248 8.056-.147-1.025 2.124-7.837-.366-.22-4.834 3.736v-1.099q2.867-2.922 4.406-5.554a16.039 16.039 0 00.868-1.697 16.412 16.412 0 00.892-2.753q.325-1.374.524-3.011a42.692 42.692 0 00.268-3.538l-1.099-.586-4.834 4.834.586-2.124a42.1 42.1 0 002.097-2.243 25.422 25.422 0 001.602-2.042 4.761 4.761 0 00.85-2.794q0-.733-.183-1.543a9.06 9.06 0 00-.118-.46l-1.025-1.098-4.761 4.687-1.684.659q3.642-4.185 5.186-7.12a12.288 12.288 0 00.82-1.889l-.074-2.783a30.875 30.875 0 01-2.482 3.49 22.623 22.623 0 01-2.059 2.186 17.517 17.517 0 01-5.639 3.479 81.182 81.182 0 005.819-6.369 69.421 69.421 0 003.922-5.276v-2.344l-3.296 1.245-8.643.074-1.025.366.732 4.028-.219 5.567-1.612 8.569a16.292 16.292 0 012.677 3.614 12.809 12.809 0 011.535 5.651 14.89 14.89 0 01.009.535q0 3.309-1.475 6.541a20.586 20.586 0 01-1.647 2.922l-1.611.512a845.682 845.682 0 00-.833-2.127q-2.756-7.005-3.269-7.87-.586-.989 1.392-10.877l-3.15-6.885-.586-5.932a77.314 77.314 0 01.691-2.958q.712-2.784 1.44-4.527a16.282 16.282 0 01.103-.242 6.945 6.945 0 00.379-1.243q.757-3.401.757-12.49a18.309 18.309 0 01-3.879-1.698 13.957 13.957 0 01-2.274-1.671L0 10.693l.439-.512q1.465-.074 6.739-2.271V3.809l1.538.439.293 3.296a58.704 58.704 0 00.794.007q4.002.009 5.138-.593l-.073-2.417.44-1.538 1.464 1.685.293 2.343a44.078 44.078 0 013.055-.497q2.7-.337 4.763-.182a15.498 15.498 0 01.239.02V.293zM9.448 25.232a37.661 37.661 0 00.039-.533q.234-3.604-.039-9.391a20.13 20.13 0 004.029.402 22.373 22.373 0 004.174-.402 96.841 96.841 0 01.137.3q.623 1.37 1.937 4.355a1627.637 1627.637 0 011.076 2.449 13.22 13.22 0 00-1.798.493q-3.092 1.079-6.456 3.806a40.648 40.648 0 00-2.952 2.659.547.547 0 01-.115-.203q-.223-.625-.112-2.74a45.577 45.577 0 01.08-1.195zM5.632 37.814a9.767 9.767 0 00.044.931 15.293 15.293 0 002.037 6.211 18.471 18.471 0 00.27.454 15.512 15.512 0 001.162-4.077 21.837 21.837 0 00.23-2.844q.05-2.729-.858-4.996a11.203 11.203 0 00-1.046-1.999q-1.839 3.297-1.839 6.32zm16.267-12.692h-1.611q-3.589 1.172-6.445 4.248a46.43 46.43 0 005.127.293 6.77 6.77 0 002.536-.441 4.744 4.744 0 001.419-.877 4.435 4.435 0 00.004-.202q0-1.51-1.03-3.021zM9.595 64.16l1.098-.586q.44-2.71.11-4.87-.329-2.161-2.307-4.212a22.487 22.487 0 00-.538 2.26q-.319 1.78-.158 3.05a8.726 8.726 0 00.805 2.612 14.431 14.431 0 00.99 1.746zM29.37 21.899l-4.834 2.124 1.099 3.223 5.859-4.248-2.124-1.099zM15.967 9.595L9.595 10.62v2.197l6.152-.073.806-1.025-.586-2.124zm2.563-.513l.659 3.223 5.347-1.612.513-2.124a609.447 609.447 0 00-1.676-.032q-2.334-.041-3.598-.041l-1.245.586zm5.347 4.761l-3.735.879 2.27 5.053.952-1.611a180.973 180.973 0 00.582-1.672q.263-.769.442-1.325a31.749 31.749 0 00.185-.592 1.846 1.846 0 00.077-.371q.05-.618-.68-.392a2.286 2.286 0 00-.093.031zM4.761 11.719l.586 1.098 2.124-.512-1.612-1.612-1.098 1.026zm25.342-2.783l-2.344.146.146 1.025 2.051.074.147-1.245z"
      vector-effect="non-scaling-stroke" stroke-linecap="round" fill-rule="evenodd" font-size="12" stroke-width="0" />
    <path id='zhi' transform="translate(85, 15) scale(1)"
      d="M19.204 1.904L21.108 0a31.348 31.348 0 011.883 2.126q2.494 3.065 5.442 7.908 3.852 6.33 3.311 9.234a3.257 3.257 0 01-.089.361 32.066 32.066 0 01-8.257 5.933 37.268 37.268 0 01-2.729 1.245l7.178 5.786q2.856 1.391 5.529 2.527a25.046 25.046 0 013.728 1.993 32.667 32.667 0 011.729 1.193 4.401 4.401 0 01-.889.154q-2.258.174-6.325-1.363a16.518 16.518 0 00-1.651-.532q-2.454-.643-4.078-.077a3.811 3.811 0 00-1.412.866l-.953 10.034-2.05-3.369a40.37 40.37 0 00.097-1.424q.11-2.222-.151-3.228a3.07 3.07 0 00-.02-.073q-.356-1.248-7.52-1.003a84.744 84.744 0 00-.39.015l.147 8.642-2.124 2.344 18.676-.439 1.465-1.905a1.946 1.946 0 01.827.917q.822 1.599 1.019 5.687a55.632 55.632 0 01.059 2.149 76.39 76.39 0 01.003.71q0 4.86-.632 8.729a32.862 32.862 0 01-.836 3.781q-2.564-14.575-1.905-18.164l-11.499 2.417q-.768 4.473-.837 11.315a132.506 132.506 0 00-.005.66q-.036 7.288-3.479 7.507l.073-19.043H7.266a124.27 124.27 0 00-.015 1.912 131.735 131.735 0 00.234 7.793 13.111 13.111 0 01.023.776q0 4.5-3.092 9.032a23.869 23.869 0 01-.08.116V51.27q6.91-1.797 6.91-2.974a.404.404 0 00-.025-.139 4.97 4.97 0 01-.173-.681q-.39-1.97-.926-8.218-5.713-.879-6.848.11a1.183 1.183 0 01-.789.321q-.79 0-1.759-1.14a8.209 8.209 0 01-.199-.243l10.547-10.035-7.177-.952a11.46 11.46 0 01-3.408-6.23 15.905 15.905 0 01-.291-2.229 108.166 108.166 0 01-.149-3.064q-.094-2.82-.007-5.191a53.542 53.542 0 01.046-1.01l1.392-.513 1.098 2.93q3.589 4.467 6.079 6.225 3.369-8.642 3.369-12.304l1.465-.66 7.178 12.012 1.904-9.155-3.369-6.226zm-5.273 11.499l-3.809 11.499a21.69 21.69 0 007.807-1.618 25.946 25.946 0 001.788-.799l-5.786-9.082zm2.417 14.868l-6.226 4.761.44 1.905q3.002.219 7.031.146a15.731 15.731 0 002.12-.166q.993-.155 1.673-.451a2.597 2.597 0 001.187-.921l-6.225-5.274zm6.225-6.225l7.178-4.321-3.809-6.226a70.248 70.248 0 01-2.428 4.566 58.447 58.447 0 01-.575.964 5.972 5.972 0 00-.774 1.899q-.098.48-.098.957a5.034 5.034 0 00.506 2.161zM3.384 17.725l.293 5.2 3.589 1.538a56.159 56.159 0 00.355-1.544q.292-1.369.267-1.789-.036-.622-4.504-3.405z"
      vector-effect="non-scaling-stroke" stroke-linecap="round" fill-rule="evenodd" font-size="12" stroke-width="0" />

    <circle id="c1" r="15" style="stroke:none;" />
    <mask id="mask1" width="100%" height="100%" x="0" y="0">
      <use href="#c1" x="100" y="50" fill="#fff" />
    </mask>
    <mask id="mask2" width="100%" height="100%" x="0" y="0">
      <use href="#c1" x="100" y="150" fill="#fff" />
    </mask>
  </defs>

  <use href="#zhi" fill="#000000" />
  <use href="#c1" fill="#000000" x="100" y="50" />
  <use href="#zhi" fill="#e5e7eb" mask="url(#mask1)" />


  <use href="#zai" fill="#e5e7eb" />
  <use href="#c1" fill="#e5e7eb" x="100" y="150" />
  <use href="#zai" fill="#000000" mask="url(#mask2)" />

  <!-- <circle cx="100" cy="100" r="100" fill="#fff" fill-opacity="0.2" stroke="#666" stroke-width="0"  /> -->
</svg>
