<svg>
  <path
    d="M19.204 1.904L21.108 0a31.348 31.348 0 011.883 2.126q2.494 3.065 5.442 7.908 3.852 6.33 3.311 9.234a3.257 3.257 0 01-.089.361 32.066 32.066 0 01-8.257 5.933 37.268 37.268 0 01-2.729 1.245l7.178 5.786q2.856 1.391 5.529 2.527a25.046 25.046 0 013.728 1.993 32.667 32.667 0 011.729 1.193 4.401 4.401 0 01-.889.154q-2.258.174-6.325-1.363a16.518 16.518 0 00-1.651-.532q-2.454-.643-4.078-.077a3.811 3.811 0 00-1.412.866l-.953 10.034-2.05-3.369a40.37 40.37 0 00.097-1.424q.11-2.222-.151-3.228a3.07 3.07 0 00-.02-.073q-.356-1.248-7.52-1.003a84.744 84.744 0 00-.39.015l.147 8.642-2.124 2.344 18.676-.439 1.465-1.905a1.946 1.946 0 01.827.917q.822 1.599 1.019 5.687a55.632 55.632 0 01.059 2.149 76.39 76.39 0 01.003.71q0 4.86-.632 8.729a32.862 32.862 0 01-.836 3.781q-2.564-14.575-1.905-18.164l-11.499 2.417q-.768 4.473-.837 11.315a132.506 132.506 0 00-.005.66q-.036 7.288-3.479 7.507l.073-19.043H7.266a124.27 124.27 0 00-.015 1.912 131.735 131.735 0 00.234 7.793 13.111 13.111 0 01.023.776q0 4.5-3.092 9.032a23.869 23.869 0 01-.08.116V51.27q6.91-1.797 6.91-2.974a.404.404 0 00-.025-.139 4.97 4.97 0 01-.173-.681q-.39-1.97-.926-8.218-5.713-.879-6.848.11a1.183 1.183 0 01-.789.321q-.79 0-1.759-1.14a8.209 8.209 0 01-.199-.243l10.547-10.035-7.177-.952a11.46 11.46 0 01-3.408-6.23 15.905 15.905 0 01-.291-2.229 108.166 108.166 0 01-.149-3.064q-.094-2.82-.007-5.191a53.542 53.542 0 01.046-1.01l1.392-.513 1.098 2.93q3.589 4.467 6.079 6.225 3.369-8.642 3.369-12.304l1.465-.66 7.178 12.012 1.904-9.155-3.369-6.226zm-5.273 11.499l-3.809 11.499a21.69 21.69 0 007.807-1.618 25.946 25.946 0 001.788-.799l-5.786-9.082zm2.417 14.868l-6.226 4.761.44 1.905q3.002.219 7.031.146a15.731 15.731 0 002.12-.166q.993-.155 1.673-.451a2.597 2.597 0 001.187-.921l-6.225-5.274zm6.225-6.225l7.178-4.321-3.809-6.226a70.248 70.248 0 01-2.428 4.566 58.447 58.447 0 01-.575.964 5.972 5.972 0 00-.774 1.899q-.098.48-.098.957a5.034 5.034 0 00.506 2.161zM3.384 17.725l.293 5.2 3.589 1.538a56.159 56.159 0 00.355-1.544q.292-1.369.267-1.789-.036-.622-4.504-3.405z"
    vector-effect="non-scaling-stroke" stroke-linecap="round" fill-rule="evenodd" font-size="12" stroke="#000"
    stroke-width=".1" />
</svg>
