<svg>
  <g id="svgGroup" stroke-linecap="round" fill-rule="evenodd" font-size="9pt" stroke="#000000" stroke-width="0.1"
    fill="#000000" style="stroke:#000000;stroke-width:0.1;fill:#000000">
    <path
      d="M 16.214 33.075 L 17.639 30.15 A 0.713 0.713 0 0 1 17.805 29.822 C 17.959 29.609 18.164 29.363 18.164 29.175 C 18.614 27.975 18.839 26.7 19.139 25.575 C 19.139 25.05 19.289 24.75 19.814 24.75 L 21.539 24.75 C 24.314 24.75 27.239 25.05 30.164 25.05 L 30.839 25.05 C 31.176 25.05 31.809 24.881 32.104 24.797 A 9.284 9.284 0 0 0 32.263 24.75 C 32.264 24.75 33.089 23.775 33.239 23.325 A 4.269 4.269 0 0 0 33.169 22.525 A 2.106 2.106 0 0 0 32.264 21.075 C 32.114 20.85 31.589 21.075 31.289 20.625 L 28.214 20.625 A 60.134 60.134 0 0 0 25.755 20.683 C 24.122 20.75 22.489 20.85 20.789 20.85 L 20.114 20.85 L 19.814 20.625 L 20.264 15.75 C 22.814 15.75 24.989 15.225 27.389 14.925 L 28.889 14.925 C 29.272 14.797 30.256 13.36 30.537 12.428 A 1.539 1.539 0 0 0 30.614 12 A 0.735 0.735 0 0 0 30.207 11.446 C 29.774 11.163 29.092 10.969 28.649 10.901 A 1.997 1.997 0 0 0 28.364 10.875 L 28.214 10.875 L 27.239 11.025 A 3.824 3.824 0 0 0 27.018 11.038 C 26.34 11.088 24.455 11.278 23.919 11.318 A 2.289 2.289 0 0 1 23.789 11.325 L 22.814 11.55 L 20.564 11.55 L 20.564 10.875 C 20.564 10.104 20.76 7.958 20.786 7.435 A 1.883 1.883 0 0 0 20.789 7.35 A 1.858 1.858 0 0 1 20.83 7.085 C 20.941 6.535 21.234 5.375 21.239 5.179 A 0.191 0.191 0 0 0 21.239 5.175 L 21.239 4.2 C 21.239 3.45 21.539 2.925 21.089 2.475 C 20.264 1.5 18.839 0 17.339 0 L 16.889 0 C 16.889 0 16.469 0.66 16.38 0.907 A 0.227 0.227 0 0 0 16.364 0.975 C 16.364 1.275 15.914 2.475 15.914 2.925 L 15.914 3.45 L 16.214 3.9 A 4.276 4.276 0 0 0 16.38 4.497 C 16.67 5.337 17.189 6.375 17.189 6.375 A 11.603 11.603 0 0 1 17.29 7.472 C 17.339 8.384 17.339 9.473 17.339 10.35 L 17.339 12 L 16.889 12.3 A 2.847 2.847 0 0 0 16.6 12.329 C 16.144 12.39 15.355 12.525 15.239 12.525 C 14.939 12.525 12.764 12.825 12.014 12.825 L 11.789 12.825 A 1.852 1.852 0 0 1 11.506 12.79 C 11.063 12.712 10.364 12.525 10.364 12.525 C 10.064 12.525 10.064 12 10.064 11.85 A 2.426 2.426 0 0 1 10.671 10.372 C 10.717 10.31 10.762 10.249 10.807 10.188 A 2.117 2.117 0 0 0 11.339 8.925 A 2.064 2.064 0 0 0 10.012 7.11 C 8.922 6.555 7.419 6.386 6.553 6.376 A 7.161 7.161 0 0 0 6.464 6.375 L 5.489 6.375 A 0.422 0.422 0 0 0 5.193 6.881 A 4.394 4.394 0 0 0 5.189 7.125 A 5.648 5.648 0 0 0 5.414 8.512 A 5.648 5.648 0 0 1 5.639 9.9 L 5.639 15.9 A 2.424 2.424 0 0 0 6.567 16.765 A 6.338 6.338 0 0 0 6.914 16.95 L 8.114 16.95 C 10.364 16.95 12.764 16.425 14.939 16.2 L 17.189 16.2 L 17.189 20.85 L 16.889 21.075 A 16.659 16.659 0 0 1 16.75 21.117 C 16.507 21.189 16.008 21.333 15.772 21.367 A 0.606 0.606 0 0 1 15.689 21.375 A 4.62 4.62 0 0 0 15.144 21.419 C 14.318 21.523 13.135 21.783 12.821 21.82 A 0.529 0.529 0 0 1 12.764 21.825 C 12.464 21.825 10.814 22.05 10.514 22.05 L 9.389 22.35 C 8.564 22.575 6.614 22.8 6.614 22.8 C 6.464 22.8 4.214 23.025 3.989 23.025 A 2.126 2.126 0 0 0 3.609 23.083 C 3.205 23.17 2.671 23.325 2.564 23.325 A 2.221 2.221 0 0 0 2.201 23.371 C 1.853 23.437 1.439 23.55 1.439 23.55 A 3.561 3.561 0 0 0 0.364 25.209 C 0.143 25.843 0.029 26.526 0.015 27.105 A 4.99 4.99 0 0 0 0.014 27.225 C 0.014 28.2 0.464 28.95 1.739 28.95 A 1.233 1.233 0 0 0 2.046 28.886 C 2.458 28.762 3.067 28.5 3.239 28.5 C 5.189 27.975 6.914 27 8.864 26.55 C 9.067 26.55 9.883 26.305 10.26 26.258 A 0.866 0.866 0 0 1 10.364 26.25 C 12.314 25.725 13.964 25.275 15.914 25.05 L 16.214 25.05 L 16.364 25.275 A 14.84 14.84 0 0 0 16.34 25.396 C 16.3 25.608 16.221 26.042 16.214 26.227 A 0.646 0.646 0 0 0 16.214 26.25 A 18.659 18.659 0 0 1 10.995 32.619 C 10.524 33.021 10.037 33.421 9.539 33.825 L 9.389 34.125 C 8.912 34.329 6.457 35.523 5.672 35.965 A 3.13 3.13 0 0 0 5.489 36.075 A 20.253 20.253 0 0 1 5.369 36.123 C 5.047 36.253 4.171 36.6 3.989 36.6 C 3.014 36.75 1.439 37.05 0.764 37.275 A 2.892 2.892 0 0 0 0.641 37.363 C 0.575 37.413 0.495 37.477 0.43 37.542 A 0.332 0.332 0 0 0 0.314 37.725 A 1.298 1.298 0 0 0 0.431 38.195 C 0.881 39.284 2.527 41.127 3.451 41.432 A 0.767 0.767 0 0 0 3.689 41.475 L 5.939 41.475 C 5.939 41.475 7.065 41.193 7.408 40.971 A 0.544 0.544 0 0 0 7.439 40.95 A 16.453 16.453 0 0 0 15.128 34.68 A 34.436 34.436 0 0 0 16.214 33.075 Z M 57.764 29.175 L 58.214 28.65 C 58.395 28.286 58.92 27.433 59.115 26.96 A 0.804 0.804 0 0 0 59.189 26.7 C 59.189 26.7 59.377 25.506 59.409 24.901 A 2.923 2.923 0 0 0 59.414 24.75 L 59.414 24 L 59.714 23.325 A 22.695 22.695 0 0 0 59.791 22.138 C 59.842 21.06 59.894 20 60.389 18.9 C 60.595 18.427 60.954 17.989 61.312 17.541 A 3.817 3.817 0 0 0 62.414 15.225 C 62.414 14.475 62.414 13.95 61.664 13.8 C 61.232 13.8 60.293 13.445 59.889 13.319 A 0.861 0.861 0 0 0 59.714 13.275 A 4.632 4.632 0 0 1 59.327 13.251 C 58.561 13.18 57.186 12.975 56.939 12.975 A 3.732 3.732 0 0 0 56.634 12.998 C 55.637 13.098 52.823 13.5 52.364 13.5 A 230.004 230.004 0 0 1 47.98 13.854 C 46.363 13.974 44.772 14.091 43.139 14.25 A 3.376 3.376 0 0 0 42.773 14.285 C 42.295 14.348 41.564 14.475 41.339 14.475 L 38.114 14.475 C 37.439 14.775 36.989 15.225 36.989 15.9 C 36.989 17.475 37.964 19.125 39.089 20.1 L 39.089 22.35 A 21.422 21.422 0 0 1 38.944 25.122 C 38.809 26.154 38.56 27.144 38.114 28.2 C 37.965 28.497 37.67 28.647 37.664 29.159 A 1.36 1.36 0 0 0 37.664 29.175 C 37.664 30.45 38.414 31.875 39.614 31.875 A 10.057 10.057 0 0 0 42.455 31.356 A 14.968 14.968 0 0 1 44.264 30.9 C 46.214 30.45 48.164 30.45 50.114 29.925 L 56.264 29.925 C 56.264 29.925 57.464 29.475 57.764 29.175 Z M 56.264 16.725 L 56.264 18.9 C 56.264 19.103 56.019 19.919 55.971 20.296 A 0.866 0.866 0 0 0 55.964 20.4 A 3.966 3.966 0 0 1 55.95 20.638 C 55.913 21.12 55.814 22.106 55.814 22.35 A 2.319 2.319 0 0 0 55.686 22.777 C 55.496 23.647 55.403 25.136 54.839 25.575 L 53.039 25.575 C 51.48 25.575 49.253 25.709 47.494 25.976 A 21.818 21.818 0 0 0 47.189 26.025 L 46.214 26.25 A 2.031 2.031 0 0 0 46.004 26.278 C 45.643 26.336 44.93 26.47 44.521 26.525 A 2.264 2.264 0 0 1 44.264 26.55 L 43.289 26.7 L 43.139 26.55 A 1.874 1.874 0 0 0 43.044 26.094 C 42.961 25.813 42.852 25.5 42.84 25.308 A 0.53 0.53 0 0 1 42.839 25.275 C 42.839 25.08 43.064 24.264 43.124 23.904 A 0.876 0.876 0 0 0 43.139 23.775 C 43.289 21.825 43.289 20.1 43.289 18.15 C 45.764 16.95 49.439 17.175 52.064 16.95 A 3.618 3.618 0 0 0 52.379 16.925 C 52.897 16.87 53.8 16.739 53.99 16.726 A 0.373 0.373 0 0 1 54.014 16.725 L 56.264 16.725 Z M 28.214 38.025 L 29.864 38.025 A 2.892 2.892 0 0 0 29.987 37.937 C 30.052 37.888 30.132 37.823 30.197 37.758 A 0.332 0.332 0 0 0 30.314 37.575 C 30.614 37.275 31.139 36.6 31.139 36.6 A 13.295 13.295 0 0 0 31.157 36.475 C 31.181 36.308 31.223 35.998 31.253 35.687 A 6.486 6.486 0 0 0 31.289 35.1 L 31.289 34.8 C 31.289 34.659 30.893 33.53 30.844 33.389 A 14.618 14.618 0 0 0 30.839 33.375 A 9.301 9.301 0 0 0 24.468 28.79 A 13.617 13.617 0 0 0 23.789 28.65 L 22.514 28.65 A 4.677 4.677 0 0 0 23.519 31.422 C 24.116 32.274 24.865 33.092 25.439 34.125 C 25.964 34.65 27.239 36.3 27.239 36.6 A 1.182 1.182 0 0 1 27.373 36.814 C 27.594 37.219 27.975 38.025 28.214 38.025 Z"
      id="0" vector-effect="non-scaling-stroke" />
  </g>
</svg>
