<svg>
  <g id="svgGroup" stroke-linecap="round" fill-rule="evenodd" font-size="9pt" stroke="#000000" stroke-width="0.1"
    fill="#000000" style="stroke:#000000;stroke-width:0.1;fill:#000000">
    <path
      d="M 25.735 38.7 L 25.735 24 A 1.76 1.76 0 0 1 26.639 22.686 A 4.244 4.244 0 0 1 26.935 22.5 C 27.187 22.5 27.915 21.812 28.32 21.592 A 0.449 0.449 0 0 1 28.51 21.525 C 28.645 21.39 29.684 20.713 30.276 20.466 A 1.723 1.723 0 0 1 30.46 20.4 L 31.585 19.575 L 32.41 18.825 A 0.962 0.962 0 0 1 32.628 18.625 C 32.877 18.442 33.254 18.239 33.443 18.172 A 0.322 0.322 0 0 1 33.535 18.15 L 38.41 13.275 A 7.629 7.629 0 0 1 38.703 12.572 A 2.736 2.736 0 0 1 40.21 11.025 C 40.21 11.025 41.649 10.829 42.45 10.803 A 4.974 4.974 0 0 1 42.61 10.8 C 43.222 10.8 45.312 10.554 45.922 10.507 A 2.128 2.128 0 0 1 46.06 10.5 L 56.26 10.5 C 58.735 9.825 61.435 10.35 63.085 8.325 L 63.61 7.575 C 64.06 7.125 64.36 6.375 64.36 5.4 A 0.529 0.529 0 0 0 63.621 4.875 L 63.61 4.875 A 141.964 141.964 0 0 0 58.2 4.984 C 55.242 5.098 52.234 5.293 49.38 5.542 A 183.768 183.768 0 0 0 48.46 5.625 C 46.735 5.85 45.235 6.15 43.585 6.15 C 43.285 6.15 42.61 6.15 42.61 5.85 C 42.61 4.65 43.81 3.45 43.81 1.95 A 2.125 2.125 0 0 0 42.184 0.152 C 41.889 0.053 41.594 0 41.335 0 C 40.204 0 38.931 0.331 38.454 1.33 A 2.109 2.109 0 0 0 38.26 2.25 A 4.169 4.169 0 0 0 38.485 3.338 A 4.68 4.68 0 0 1 38.71 4.65 A 2.174 2.174 0 0 1 36.538 6.793 A 4.242 4.242 0 0 1 36.01 6.825 A 21.638 21.638 0 0 0 35.433 6.835 C 33.613 6.885 30.016 7.117 29.509 7.125 A 1.528 1.528 0 0 1 29.485 7.125 C 29.185 7.125 26.26 7.35 25.96 7.35 C 24.21 7.5 22.327 7.45 20.444 7.533 A 24.262 24.262 0 0 0 17.635 7.8 C 17.485 7.8 16.66 8.1 16.66 8.1 A 3.982 3.982 0 0 0 16.312 8.373 C 15.573 9.018 14.833 10.065 14.621 10.893 A 1.756 1.756 0 0 0 14.56 11.325 C 14.56 12.723 15.21 13.399 16.439 13.424 A 3.514 3.514 0 0 0 16.51 13.425 A 9.141 9.141 0 0 0 17.715 13.34 C 19.502 13.103 21.289 12.426 22.893 12.103 A 10.605 10.605 0 0 1 23.485 12 C 25.743 11.609 28.051 11.495 30.352 11.381 A 76.859 76.859 0 0 0 35.335 11.025 A 0.814 0.814 0 0 1 35.493 11.044 C 35.515 11.049 35.537 11.055 35.56 11.063 A 0.281 0.281 0 0 1 35.785 11.325 A 0.376 0.376 0 0 1 35.807 11.448 C 35.838 13.104 27.202 19.575 25.96 19.575 A 0.381 0.381 0 0 1 25.622 19.264 C 25.411 18.721 25.387 17.585 24.547 16.835 A 2.331 2.331 0 0 0 24.31 16.65 C 23.859 16.392 22.743 16.356 22.105 16.351 A 32.577 32.577 0 0 0 21.835 16.35 L 20.41 16.35 C 19.885 16.65 19.885 16.875 19.885 17.175 C 19.885 18.6 22.06 19.275 22.06 21.525 C 22.06 22.5 16.66 23.775 15.985 24 A 1.591 1.591 0 0 0 15.711 24.042 C 15.259 24.137 14.448 24.368 13.956 24.433 A 1.737 1.737 0 0 1 13.735 24.45 C 13.133 24.718 11.274 24.926 10.776 24.967 A 1.948 1.948 0 0 1 10.66 24.975 C 9.51 24.975 4.207 25.219 2.245 25.267 A 22.546 22.546 0 0 1 1.735 25.275 L 0.31 26.7 A 0.977 0.977 0 0 0 0.017 27.214 C -0.02 27.408 0.011 27.598 0.043 27.793 A 2.536 2.536 0 0 1 0.085 28.2 L 0.085 29.475 A 2.235 2.235 0 0 0 1.367 30.23 A 7.56 7.56 0 0 1 2.035 30.45 L 4.66 30.45 A 31.808 31.808 0 0 0 7.351 30.344 C 9.834 30.134 11.989 29.6 14.56 28.65 C 15.685 28.2 16.96 27.9 17.935 27.375 A 10.489 10.489 0 0 0 18.452 27.113 C 19.633 26.482 21.655 25.275 22.36 25.275 L 22.51 25.275 C 22.51 25.425 22.81 26.4 22.81 26.7 L 22.81 29.925 C 22.81 32.4 22.81 34.5 21.835 36.75 A 0.506 0.506 0 0 1 21.781 36.909 C 21.537 37.437 20.56 38.963 20.56 39.225 L 20.41 40.5 A 0.909 0.909 0 0 1 20.362 40.689 C 20.232 41.091 19.885 41.967 19.885 42.15 C 19.585 43 19.119 43.717 18.841 44.433 A 3.004 3.004 0 0 0 18.61 45.525 A 2.747 2.747 0 0 0 18.995 47.339 A 1.633 1.633 0 0 0 19.585 47.775 C 19.885 48 20.56 48.75 21.385 48.75 A 1.172 1.172 0 0 0 22.366 48.052 C 22.962 47.039 23.167 45.195 23.485 44.4 A 30.738 30.738 0 0 1 24.324 42.764 C 25.03 41.444 25.735 40.072 25.735 38.7 Z M 30.61 37.275 L 31.135 37.275 A 18.369 18.369 0 0 0 34.923 36 C 36.142 35.475 37.36 34.913 38.71 34.5 A 34.554 34.554 0 0 1 43.67 33.681 C 44.7 33.579 45.745 33.51 46.79 33.463 A 103.446 103.446 0 0 1 51.385 33.375 C 54.835 33.375 58.21 33.825 61.435 34.5 C 63.408 34.976 65.196 35.637 67.358 35.756 A 12.332 12.332 0 0 0 68.035 35.775 L 69.76 35.775 C 70.201 35.334 70.498 35.469 71.144 35.334 A 3.39 3.39 0 0 0 71.185 35.325 C 72.91 34.8 74.11 33.375 75.085 31.875 A 20.672 20.672 0 0 0 75.42 30.046 C 75.517 29.355 75.583 28.658 75.604 28.054 A 11.212 11.212 0 0 0 75.61 27.675 L 75.385 27.675 A 1.078 1.078 0 0 0 75.068 27.762 C 74.7 27.904 74.158 28.181 73.853 28.297 A 0.672 0.672 0 0 1 73.66 28.35 C 73.461 28.35 70.9 28.999 70.167 29.146 A 1.355 1.355 0 0 1 69.985 29.175 L 69.235 29.475 A 7.317 7.317 0 0 0 69.036 29.481 C 68.418 29.506 66.631 29.593 66.044 29.618 A 7.634 7.634 0 0 1 65.86 29.625 A 2.732 2.732 0 0 0 65.545 29.658 C 65.032 29.731 64.143 29.903 63.94 29.923 A 0.326 0.326 0 0 1 63.91 29.925 L 50.41 29.925 L 50.26 29.625 A 49.008 49.008 0 0 0 50.516 28.958 C 50.887 27.969 51.257 26.872 51.533 25.775 A 15.676 15.676 0 0 0 51.91 23.775 A 18.721 18.721 0 0 1 53.713 23.607 C 55.51 23.508 57.407 23.502 58.981 22.782 A 4.999 4.999 0 0 0 60.685 21.525 C 60.923 21.406 61.256 20.862 61.383 20.642 A 4.605 4.605 0 0 0 61.435 20.55 L 61.435 20.1 A 1.306 1.306 0 0 0 60.148 18.859 A 2.812 2.812 0 0 0 59.71 18.825 C 57.688 18.825 55.601 19.473 53.751 19.564 A 8.451 8.451 0 0 1 53.335 19.575 L 52.21 19.575 L 51.91 19.275 A 1.438 1.438 0 0 0 51.875 19.057 C 51.821 18.799 51.721 18.402 51.693 18.222 A 0.517 0.517 0 0 1 51.685 18.15 L 51.685 14.7 A 1.564 1.564 0 0 0 50.03 13.95 A 70.09 70.09 0 0 0 49.96 13.95 A 19.582 19.582 0 0 0 49.495 13.954 C 48.794 13.97 47.721 14.046 47.485 14.4 A 1.233 1.233 0 0 1 47.422 14.708 C 47.297 15.12 47.035 15.728 47.035 15.9 A 6.167 6.167 0 0 0 47.41 17.738 A 6.167 6.167 0 0 1 47.785 19.575 C 47.785 20.55 46.06 20.55 45.235 20.55 C 45.094 20.55 43.362 20.815 42.906 20.847 A 1.077 1.077 0 0 1 42.835 20.85 L 42.31 21.075 C 42.16 21.075 39.685 21.375 39.385 21.375 A 2.77 2.77 0 0 0 39.258 21.381 C 38.843 21.408 37.611 21.509 37.332 21.523 A 1.056 1.056 0 0 1 37.285 21.525 A 3.032 3.032 0 0 0 36.738 22.38 C 36.52 22.855 36.362 23.396 36.321 23.804 A 1.964 1.964 0 0 0 36.31 24 A 1.204 1.204 0 0 0 37.641 25.263 A 3.979 3.979 0 0 0 37.96 25.275 A 9.026 9.026 0 0 0 39.362 25.145 C 40.778 24.917 42.418 24.439 43.727 24.098 A 41.106 41.106 0 0 1 44.11 24 L 44.785 23.775 L 47.185 23.775 C 47.185 24.564 47.254 25.542 47.186 26.52 A 5.178 5.178 0 0 1 46.21 29.475 L 45.235 30.45 L 30.46 31.125 A 6.436 6.436 0 0 1 30.394 31.283 C 30.293 31.515 30.095 31.94 29.935 32.1 C 29.635 32.85 28.66 34.8 28.66 35.025 L 28.66 35.475 A 2.083 2.083 0 0 0 28.94 36.664 C 29.165 36.995 29.537 37.181 30.095 37.247 A 4.395 4.395 0 0 0 30.61 37.275 Z"
      id="0" vector-effect="non-scaling-stroke" />
  </g>
</svg>
