<svg>
  <g id="svgGroup" stroke-linecap="round" fill-rule="evenodd" font-size="9pt" stroke="#000000" stroke-width="0.1"
    fill="#000000" style="stroke:#000000;stroke-width:0.1;fill:#000000">
    <path
      d="M 13.117 10.953 L 12.971 25.308 A 2933.171 2933.171 0 0 0 14.582 25.274 Q 16.807 25.226 17.878 25.198 A 102.118 102.118 0 0 0 19.077 25.162 A 23.839 23.839 0 0 0 19.819 25.125 Q 22.749 25.125 22.749 26.627 A 1.122 1.122 0 0 1 22.236 27.652 Q 21.871 27.848 20.477 28.023 A 36.2 36.2 0 0 1 19.526 28.128 L 17.072 28.275 Q 16.926 30.765 16.798 33.511 A 87.451 87.451 0 0 0 16.723 35.814 Q 16.698 37.048 16.698 38.448 A 173.895 173.895 0 0 0 16.706 40.103 Q 16.706 46.499 17.09 50.677 A 57.977 57.977 0 0 0 17.127 51.071 A 180.951 180.951 0 0 0 17.446 54.06 Q 17.713 56.374 17.988 58.102 A 43.378 43.378 0 0 0 18.568 61.115 A 27.794 27.794 0 0 0 19.032 62.863 A 17.519 17.519 0 0 1 19.427 64.379 Q 19.571 65.075 19.571 65.535 A 2.451 2.451 0 0 1 19.563 65.738 A 2.159 2.159 0 0 1 18.83 67.185 A 0.699 0.699 0 0 1 18.367 67.366 Q 17.883 67.366 17.255 66.69 A 4.092 4.092 0 0 1 16.412 65.33 A 10.201 10.201 0 0 1 15.882 63.486 A 123.824 123.824 0 0 1 15.077 59.055 A 142.128 142.128 0 0 1 14.774 57.118 A 68.686 68.686 0 0 1 14.564 55.594 Q 14.399 54.276 14.124 49.204 Q 13.863 44.384 13.85 41.4 A 70.698 70.698 0 0 1 13.85 41.092 L 14.033 32.706 L 14.106 28.275 L 9.016 28.348 A 299.803 299.803 0 0 1 9.095 31.107 Q 9.146 33.243 9.146 34.837 A 89.994 89.994 0 0 1 9.144 35.452 A 54.731 54.731 0 0 1 9.11 36.972 Q 9.048 38.728 8.88 41.263 A 286.256 286.256 0 0 1 8.704 43.729 Q 8.317 48.889 8.115 50.694 A 27.54 27.54 0 0 1 8.082 50.98 Q 7.928 52.241 7.527 54.995 A 671.779 671.779 0 0 1 7.258 56.821 Q 6.635 61.014 6.306 62.863 A 24.377 24.377 0 0 1 5.573 65.914 A 18.445 18.445 0 0 1 5.482 66.196 A 2.322 2.322 0 0 1 4.744 67.351 Q 4.338 67.659 3.779 67.642 Q 2.449 67.642 2.719 65.498 A 8.304 8.304 0 0 1 2.79 65.042 Q 2.841 64.715 3.047 63.626 A 334.147 334.147 0 0 1 3.266 62.479 A 141.085 141.085 0 0 0 3.678 60.24 A 204.766 204.766 0 0 0 4.109 57.7 Q 4.548 55.008 5.006 51.144 Q 5.399 47.824 5.779 43.571 A 398.545 398.545 0 0 0 5.903 42.154 Q 6.309 37.412 6.246 35.301 A 13.908 13.908 0 0 0 6.233 34.976 L 5.976 28.531 Q 3.817 28.755 2.517 28.808 A 17.884 17.884 0 0 1 1.801 28.824 A 3.076 3.076 0 0 1 1.64 28.828 A 2.389 2.389 0 0 1 0.556 28.586 A 1.073 1.073 0 0 1 0.007 27.524 A 1.524 1.524 0 0 1 0.832 26.244 A 3.221 3.221 0 0 1 0.922 26.187 A 3.766 3.766 0 0 1 1.87 25.857 Q 3.551 25.462 7.373 25.35 A 108.708 108.708 0 0 1 10.005 25.308 L 10.078 11.026 A 15.973 15.973 0 0 0 8.562 12.171 A 8.66 8.66 0 0 0 8.119 12.582 A 5.35 5.35 0 0 0 7.277 13.753 A 12.357 12.357 0 0 0 6.709 14.926 A 31.436 31.436 0 0 0 5.982 16.77 A 16.993 16.993 0 0 0 5.683 17.691 A 19.239 19.239 0 0 0 5.171 19.943 Q 4.987 21.06 4.621 21.957 Q 4.276 22.803 3.622 22.803 A 1.059 1.059 0 0 1 3.541 22.8 A 1.224 1.224 0 0 1 2.515 22.232 A 2.407 2.407 0 0 1 2.222 20.97 A 4.26 4.26 0 0 1 2.223 20.877 Q 2.241 20.035 2.296 19.339 A 6.33 6.33 0 0 1 2.428 18.565 Q 2.523 18.133 2.682 17.521 A 69.597 69.597 0 0 1 3.065 16.116 A 11.231 11.231 0 0 1 5.409 11.722 Q 6.672 10.274 7.418 9.728 A 2.498 2.498 0 0 1 7.807 9.488 L 10.078 8.316 A 1029.326 1029.326 0 0 0 10.059 6.645 Q 10.033 4.399 10.006 3.195 A 120.794 120.794 0 0 0 10.005 3.116 Q 9.982 2.107 10.138 1.428 A 2.71 2.71 0 0 1 10.389 0.736 A 1.334 1.334 0 0 1 11.643 0.001 A 2.057 2.057 0 0 1 11.726 0.003 Q 12.564 0.037 12.758 1.882 A 9.413 9.413 0 0 1 12.788 2.237 L 12.971 5.057 L 13.117 8.316 A 17.86 17.86 0 0 1 15.333 9.433 A 5.784 5.784 0 0 1 16.601 10.523 A 12.087 12.087 0 0 1 17.457 11.594 A 14.038 14.038 0 0 1 18.66 13.561 A 8.346 8.346 0 0 1 19.032 14.432 A 28.644 28.644 0 0 1 19.856 17.197 A 30.945 30.945 0 0 1 20.181 18.639 A 11.22 11.22 0 0 1 20.313 19.449 A 17.094 17.094 0 0 1 20.421 20.633 A 7.768 7.768 0 0 1 20.423 20.694 A 1.653 1.653 0 0 1 20.424 20.758 A 1.961 1.961 0 0 1 20.185 21.664 Q 19.929 22.159 19.27 22.214 A 1.095 1.095 0 0 1 19.179 22.218 A 1.216 1.216 0 0 1 18.153 21.536 A 5.137 5.137 0 0 1 17.542 19.926 A 8.778 8.778 0 0 1 17.475 19.595 A 28.34 28.34 0 0 0 17.093 17.856 A 51.959 51.959 0 0 0 16.761 16.592 A 16.368 16.368 0 0 0 15.917 14.2 A 11.018 11.018 0 0 0 15.589 13.535 A 6.31 6.31 0 0 0 14.391 12.015 A 12.367 12.367 0 0 0 13.117 10.953 Z M 26.447 21.133 L 37.507 20.877 A 77.765 77.765 0 0 1 37.445 19.379 Q 37.411 18.254 37.434 17.545 L 37.47 11.612 L 37.287 8.023 A 2.481 2.481 0 0 1 37.283 7.877 A 2.37 2.37 0 0 1 37.525 6.833 A 1.017 1.017 0 0 1 38.532 6.265 A 1.274 1.274 0 0 1 39.739 7.395 A 3.314 3.314 0 0 1 39.796 7.657 A 26.517 26.517 0 0 1 40.098 10.125 A 38.035 38.035 0 0 1 40.144 10.77 L 40.437 21.024 A 3778.802 3778.802 0 0 1 40.505 23.117 Q 40.715 29.575 40.729 30.804 A 13.427 13.427 0 0 1 40.73 30.948 Q 40.693 33.951 40.308 36.789 A 9.453 9.453 0 0 1 39.052 40.487 A 8.055 8.055 0 0 1 38.294 41.531 A 4.823 4.823 0 0 1 36.092 42.933 Q 34.689 43.4 32.682 43.4 A 17.55 17.55 0 0 1 32.526 43.399 Q 28.462 43.399 26.722 41.953 A 7.71 7.71 0 0 1 24.445 38.956 A 6.761 6.761 0 0 1 24.323 38.638 Q 23.707 36.891 23.571 34.022 A 32.178 32.178 0 0 1 23.554 33.621 L 23.518 19.376 Q 23.481 13.04 23.628 11.209 A 18.398 18.398 0 0 1 23.775 9.599 A 32.18 32.18 0 0 1 23.866 8.957 A 1.398 1.398 0 0 1 25.349 7.602 Q 26.343 7.588 26.61 8.752 A 4.182 4.182 0 0 1 26.704 9.525 A 14.487 14.487 0 0 1 26.693 9.997 Q 26.663 10.893 26.539 12.912 A 68.785 68.785 0 0 0 26.404 17.108 A 56.944 56.944 0 0 0 26.411 17.984 L 26.447 21.133 Z M 37.507 23.587 L 26.447 23.843 A 702.49 702.49 0 0 0 26.489 26.856 A 527.373 527.373 0 0 0 26.539 29.593 A 87.235 87.235 0 0 0 26.777 34.537 A 10.579 10.579 0 0 0 27.557 37.888 A 8.39 8.39 0 0 0 27.912 38.62 A 2.929 2.929 0 0 0 29.642 39.958 Q 30.623 40.289 32.066 40.289 A 13.163 13.163 0 0 0 32.343 40.286 A 10.332 10.332 0 0 0 34.134 40.15 Q 35.25 39.952 35.804 39.462 A 3.959 3.959 0 0 0 36.807 37.94 A 8.142 8.142 0 0 0 37.177 36.734 A 20.212 20.212 0 0 0 37.609 33.821 A 29.662 29.662 0 0 0 37.69 32.303 L 37.58 27.469 L 37.507 23.587 Z"
      id="0" vector-effect="non-scaling-stroke" />
  </g>
</svg>
