<svg>
  <g id="svgGroup" stroke-linecap="round" fill-rule="evenodd" font-size="9pt" stroke="#000000" stroke-width="0.1"
    fill="#000000" style="stroke:#000000;stroke-width:0.1;fill:#000000">
    <path
      d="M 9.113 21.096 L 9.186 16.555 A 91.839 91.839 0 0 0 3.692 16.974 A 78.746 78.746 0 0 0 3.345 17.012 A 13.429 13.429 0 0 1 2.504 17.082 Q 0.692 17.171 0.236 16.571 A 0.731 0.731 0 0 1 0.159 16.445 A 1.482 1.482 0 0 1 0 15.803 A 1.394 1.394 0 0 1 0.433 14.834 A 3 3 0 0 1 2.156 14 A 5.242 5.242 0 0 1 2.484 13.955 L 5.377 13.808 L 9.113 13.625 A 369.049 369.049 0 0 1 9.034 9.203 A 292.621 292.621 0 0 1 9.021 7.839 Q 9.003 5.166 8.948 4.012 A 18.68 18.68 0 0 1 8.924 3.134 Q 8.924 2.623 8.966 2.309 A 3.026 3.026 0 0 1 9.625 0.606 A 1.493 1.493 0 0 1 10.635 0.002 Q 10.666 0 10.697 0 A 1.013 1.013 0 0 1 10.761 0.002 A 1.281 1.281 0 0 1 11.794 1.001 A 4.796 4.796 0 0 1 12.006 2.272 L 12.079 7.876 L 12.189 12.087 L 12.152 13.552 Q 18.721 13.371 19.794 14.009 A 0.822 0.822 0 0 1 19.824 14.028 Q 20.831 14.687 20.722 15.456 A 1.401 1.401 0 0 1 19.398 16.615 A 3.771 3.771 0 0 1 18.927 16.665 A 3.981 3.981 0 0 1 18.675 16.673 Q 18.054 16.676 16.557 16.576 A 100.155 100.155 0 0 1 16.51 16.573 A 68.273 68.273 0 0 0 14.432 16.468 A 108.345 108.345 0 0 0 12.006 16.408 A 2412.786 2412.786 0 0 1 12.022 17.715 Q 12.036 18.9 12.04 19.413 A 44.222 44.222 0 0 1 12.042 19.741 L 12.006 24.978 A 280.46 280.46 0 0 1 14.351 24.197 Q 18.149 22.952 19.165 22.78 A 2.11 2.11 0 0 1 19.515 22.748 Q 20.334 22.748 20.334 23.598 A 2.156 2.156 0 0 1 20.319 23.842 Q 20.172 25.124 17.682 26.04 L 12.189 27.944 L 12.189 57.314 A 861.347 861.347 0 0 1 12.187 59.393 Q 12.18 62.174 12.152 62.478 A 2.818 2.818 0 0 1 11.859 63.373 A 6.87 6.87 0 0 1 11.768 63.558 Q 11.429 64.218 10.24 64.218 A 4.413 4.413 0 0 1 10.175 64.217 Q 9.03 64.2 9.03 62.854 A 3.608 3.608 0 0 1 9.039 62.606 Q 9.149 61.013 9.149 54.787 L 9.076 28.823 Q 7.391 29.482 5.798 30.013 A 34.21 34.21 0 0 0 2.686 31.221 Q 2.129 31.47 1.732 31.47 A 0.88 0.88 0 0 1 0.836 30.727 A 2.754 2.754 0 0 1 0.724 29.984 A 1.651 1.651 0 0 1 1.148 28.841 A 3.445 3.445 0 0 1 2.277 28.071 A 8.685 8.685 0 0 1 3.473 27.633 A 38.648 38.648 0 0 0 4.457 27.327 Q 6.146 26.781 9.113 25.71 Q 9.076 21.901 9.113 21.096 Z M 23.724 27.541 L 26.434 27.285 L 28.156 27.248 A 611.103 611.103 0 0 0 28.152 25.274 Q 28.143 22.545 28.112 18.865 A 1969.515 1969.515 0 0 0 28.101 17.635 A 1848.075 1848.075 0 0 1 28.083 15.566 Q 28.049 11.437 28.064 10.366 A 48.384 48.384 0 0 0 28.069 9.694 A 60.096 60.096 0 0 0 28.027 7.528 A 8.866 8.866 0 0 1 28.022 7.207 Q 28.022 5.896 28.43 4.964 A 2.277 2.277 0 0 1 29.061 4.056 A 0.885 0.885 0 0 1 29.529 3.866 A 1.037 1.037 0 0 1 29.618 3.862 Q 30.203 3.862 30.646 4.543 A 3.183 3.183 0 0 1 31.093 6.091 Q 31.107 6.314 31.104 6.557 A 84.931 84.931 0 0 0 31.097 7.276 Q 31.092 8.072 31.097 9.18 A 381.975 381.975 0 0 0 31.104 10.366 Q 31.122 12.893 31.104 17.379 Q 31.085 21.865 31.122 23 L 31.195 27.358 A 683.043 683.043 0 0 1 32.166 27.294 A 271.04 271.04 0 0 1 32.88 27.248 L 35.883 27.468 A 9.435 9.435 0 0 1 37.151 27.616 Q 37.811 27.751 37.988 27.98 A 1.778 1.778 0 0 1 38.355 28.896 A 1.656 1.656 0 0 1 38.364 29.072 A 1.194 1.194 0 0 1 38.153 29.775 A 1.397 1.397 0 0 1 36.993 30.363 A 1.777 1.777 0 0 1 36.908 30.361 A 19.462 19.462 0 0 1 36.231 30.343 Q 34.978 30.293 31.878 30.112 A 890.266 890.266 0 0 1 31.122 30.068 A 321.821 321.821 0 0 1 31.181 36.197 A 317.193 317.193 0 0 1 31.177 37.722 Q 31.159 41.53 31.195 41.713 L 31.378 45.449 A 75.769 75.769 0 0 0 31.994 45.445 Q 32.811 45.438 34.377 45.417 A 1579.462 1579.462 0 0 0 35.956 45.394 Q 39.655 45.339 40.625 45.888 A 1.701 1.701 0 0 1 41.614 47.371 A 0.854 0.854 0 0 1 41.614 47.388 Q 41.614 48.307 39.618 48.525 A 4.551 4.551 0 0 1 39.294 48.545 Q 38.308 48.579 35.242 48.488 Q 31.616 48.381 21.459 48.831 A 791.132 791.132 0 0 0 20.941 48.855 A 8.056 8.056 0 0 1 20.553 48.864 Q 18.667 48.864 18.634 47.847 A 3.208 3.208 0 0 1 18.632 47.742 A 1.828 1.828 0 0 1 19.33 46.181 A 2.24 2.24 0 0 1 20.429 45.797 Q 21.051 45.742 24.017 45.632 L 28.485 45.485 Q 28.41 42.238 28.369 39.734 A 452.078 452.078 0 0 1 28.339 37.612 A 1989.982 1989.982 0 0 1 28.323 36.195 Q 28.309 34.897 28.304 34.27 A 66.255 66.255 0 0 1 28.302 33.84 L 28.156 30.288 A 336.763 336.763 0 0 1 26.133 30.411 Q 22.283 30.633 21.765 30.544 A 1.258 1.258 0 0 1 20.813 29.738 A 0.884 0.884 0 0 1 20.734 29.373 Q 20.734 28.82 21.417 28.164 A 1.903 1.903 0 0 1 22.287 27.742 Q 22.82 27.603 23.617 27.548 A 13.033 13.033 0 0 1 23.724 27.541 Z"
      id="0" vector-effect="non-scaling-stroke" />
  </g>
</svg>
