<svg>
  <path
    d="M23.291 10.693L39.478 0h1.977l2.49 15.967q-4.834 4.687-5.163 10.693-.313 5.704.332 5.066a.66.66 0 00.071-.085l-1.465.659a65.191 65.191 0 01-.687-2.783 37.583 37.583 0 01-.449-2.344q-.286-1.845-2.864-7.058a140.549 140.549 0 00-.834-1.658 5.411 5.411 0 00-1.194 1.554q-1.139 2.104-1.736 6.136l7.471 4.615.366 1.684q-5.979-2.391-7.175-2.025a.365.365 0 00-.296.304 21.752 21.752 0 00-.096 1.091q-.088 1.288-.16 3.523a58.81 58.81 0 00-.028 1.463q-.021 2.796.184 6.513a163.102 163.102 0 00.027.484l9.229-6.006-.44 3.442q-8.423 4.908-8.276 5.713a4.844 4.844 0 01.04.426q.152 2.275.472 15.541l-1.904.952-.439-9.448-.586-6.592-3.736 1.831-1.098 2.857q-.586 11.341 2.63 16.762a12.019 12.019 0 00.006.01l3.589-5.42 1.465-.805.293 1.391-6.152 7.984a19.966 19.966 0 01-2.246-4.459q-2.706-7.504-.918-19.151a74.729 74.729 0 01.161-1l5.713-2.49a500.557 500.557 0 01-.08-2.914q-.241-9.821.08-14.371a34.438 34.438 0 01-2.536-2.555q-1.165-1.313-1.978-2.566a13.814 13.814 0 01-1.163-2.167 6.75 6.75 0 01-.437-1.598q-.488-3.201 1.323-8.388a39.995 39.995 0 01.03-.085zM11.865 26.587l.513-1.172q3.296-.146 6.152 1.978l.952-2.051a2.958 2.958 0 011.406.845q.519.603.519 1.523a3.62 3.62 0 01-.02.378q-.22 2.088 1.831 4.432l1.025 2.197-2.417-.073a44.098 44.098 0 01.008.809q0 5.336-1.29 10.771a53.133 53.133 0 01-1.318 4.606 64.439 64.439 0 01-2.929 7.22q-1.661 3.492-3.809 7.023a89.519 89.519 0 01-1.502 2.383l-.073-2.27q1.611-6.299 5.127-11.939a.867.867 0 00-.815-.414q-.338 0-.791.144a6.735 6.735 0 00-.921.38 27.47 27.47 0 00-1.158.609q-1.35.746-3.343 1.978a180.817 180.817 0 00-1.944 1.222 21.138 21.138 0 01-2.088 1.18q-2.985 1.451-4.963.912A3.845 3.845 0 010 59.253l10.474-7.251a17.879 17.879 0 01-.787-2.632q-.316-1.481-.316-2.883a11.541 11.541 0 011.396-5.545 40.061 40.061 0 012.202-3.648q1.215-1.777 2.499-3.163a21.122 21.122 0 01.938-.952l-7.177.146.219-1.538 3.809-.952 3.589.586q.161-1.023-1.736-1.848a13.3 13.3 0 00-1.633-.569l-1.612-2.417zM38.892 3.003l-8.057 5.42a144.396 144.396 0 00-2.069 1.169q-2.686 1.551-3.323 2.137a2.033 2.033 0 00-.028.026 1.989 1.989 0 00-.383.656q-.659 1.599-1.448 6.559a11968.633 11968.633 0 011.124 1.43l2.116 2.696a1539.265 1539.265 0 01.239.305 1.528 1.528 0 00.306.307q.627.443 1.011-.949a9.717 9.717 0 00.221-1.079q.446-2.884 2.534-6.219a27.737 27.737 0 01.286-.446l-2.49-5.86 1.904-1.025 2.124 5.64 4.834-3.003a.789.789 0 01.25.573q0 .657-1.033 1.617a11.949 11.949 0 01-.938.776 6.062 6.062 0 00-.951.868q-1.341 1.559.035 3.05l1.831 4.834 2.124-4.028 3.223-3.369a86.429 86.429 0 00-.335-3.308q-.784-6.408-2.234-8.159a1.74 1.74 0 00-.873-.618zm-26.221 48.34l4.175-1.319a18.922 18.922 0 001.302-3.466q1.248-4.554 1.041-11.109a.255.255 0 00.011-.069q0-.395-1.695.216a68.404 68.404 0 01-1.717 2.228q-1.576 1.954-2.71 2.966a10.117 10.117 0 01-.261.226 4.47 4.47 0 00-1.307 1.994q-.334.941-.456 2.19a15.262 15.262 0 00-.068 1.199 16.529 16.529 0 00-.003.309q0 2.464.769 3.713a2.643 2.643 0 00.919.922zm-6.885-7.398l1.172 1.612-1.465 4.467-2.344 2.124q-.294-4.531 1.587-7.076a6.752 6.752 0 011.05-1.127z"
    vector-effect="non-scaling-stroke" stroke-linecap="round" fill-rule="evenodd" font-size="12" stroke="#000"
    stroke-width=".1" />
</svg>
